<svg xmlns="http://www.w3.org/2000/svg" id="_025_SCIENCE" width="24" height="24" data-name="025_SCIENCE" viewBox="0 0 24 24"><defs><style>.cls-1{fill:#c2c9ce}</style></defs><path d="M6,9A3,3,0,1,1,9,6,3,3,0,0,1,6,9ZM6,5A1,1,0,1,0,7,6,1,1,0,0,0,6,5Z" class="cls-1"/><path d="M12,15a3,3,0,1,1,3-3A3,3,0,0,1,12,15Zm0-4a1,1,0,1,0,1,1A1,1,0,0,0,12,11Z" class="cls-1"/><path d="M18,9a3,3,0,1,1,3-3A3,3,0,0,1,18,9Zm0-4a1,1,0,1,0,1,1A1,1,0,0,0,18,5Z" class="cls-1"/><path d="M18,21a3,3,0,1,1,3-3A3,3,0,0,1,18,21Zm0-4a1,1,0,1,0,1,1A1,1,0,0,0,18,17Z" class="cls-1"/><path d="M6,21a3,3,0,1,1,3-3A3,3,0,0,1,6,21Zm0-4a1,1,0,1,0,1,1A1,1,0,0,0,6,17Z" class="cls-1"/><rect width="2" height="4.83" x="8" y="6.59" class="cls-1" transform="translate(-3.73 9) rotate(-45)"/><rect width="4.83" height="2" x="12.59" y="8" class="cls-1" transform="translate(-1.97 13.24) rotate(-45)"/><rect width="4.83" height="2" x="6.59" y="14" class="cls-1" transform="translate(-7.97 10.76) rotate(-45)"/><rect width="2" height="4.83" x="14" y="12.59" class="cls-1" transform="translate(-6.21 15) rotate(-45)"/></svg>